<svg xmlns="http://www.w3.org/2000/svg" viewBox="0 0 600 400" role="img" aria-labelledby="title desc">
  <title id="title">Coral Sea Training first aid kit illustration</title>
  <desc id="desc">Illustrated first aid kit with medical supplies in Coral Sea Training brand colors.</desc>
  <defs>
    <linearGradient id="bg" x1="0%" y1="0%" x2="100%" y2="100%">
      <stop offset="0%" stop-color="#f6fff8"/>
      <stop offset="100%" stop-color="#fff7f7"/>
    </linearGradient>
  </defs>
  <rect width="600" height="400" fill="url(#bg)"/>
  <circle cx="110" cy="84" r="42" fill="#1b8a3d" opacity="0.1"/>
  <circle cx="504" cy="76" r="34" fill="#d90a0a" opacity="0.1"/>
  <rect x="124" y="98" width="352" height="212" rx="28" fill="#ffffff" stroke="#dbe5e8" stroke-width="4"/>
  <rect x="238" y="70" width="124" height="46" rx="18" fill="#1a2332"/>
  <rect x="172" y="142" width="256" height="126" rx="18" fill="#1b8a3d"/>
  <path d="M276 166h48v48h48v48h-48v48h-48v-48h-48v-48h48z" fill="#ffffff"/>
  <rect x="74" y="286" width="100" height="26" rx="13" fill="#d90a0a" opacity="0.14"/>
  <rect x="424" y="286" width="108" height="26" rx="13" fill="#1b8a3d" opacity="0.14"/>
  <rect x="138" y="328" width="324" height="16" rx="8" fill="#e5e7eb"/>
  <rect x="138" y="328" width="188" height="16" rx="8" fill="#1a2332" opacity="0.14"/>
  <text x="300" y="362" text-anchor="middle" fill="#1a2332" font-family="Inter, Arial, sans-serif" font-size="20" font-weight="700">Workplace-ready first aid kits</text>
</svg>
